<?xml version="1.0" encoding="UTF-8" standalone="no"?>
<!DOCTYPE svg PUBLIC "-//W3C//DTD SVG 1.1//EN" "http://www.w3.org/Graphics/SVG/1.1/DTD/svg11.dtd">
<svg width="100%" height="100%" viewBox="0 0 2192 457" version="1.1" xmlns="http://www.w3.org/2000/svg" xmlns:xlink="http://www.w3.org/1999/xlink" xml:space="preserve" xmlns:serif="http://www.serif.com/" style="fill-rule:evenodd;clip-rule:evenodd;stroke-linejoin:round;stroke-miterlimit:2;">
    <g transform="matrix(1,0,0,1,-4993.44,-9013.8)">
        <g transform="matrix(1,0,0,0.515263,-1100.38,2107.32)">
            <g transform="matrix(1.9363,0,0,3.75789,5094.77,12523.6)">
                <path d="M1228.93,469.247L1228.93,434.247L1242.18,434.247C1245.82,434.247 1248.59,435.055 1250.51,436.672C1252.42,438.288 1253.38,440.413 1253.38,443.047C1253.38,444.98 1252.91,446.555 1251.98,447.772C1251.05,448.988 1249.88,449.897 1248.48,450.497C1249.65,450.93 1250.72,451.58 1251.71,452.447C1252.69,453.313 1253.48,454.338 1254.08,455.522C1254.68,456.705 1254.98,457.997 1254.98,459.397C1254.98,461.23 1254.53,462.897 1253.63,464.397C1252.73,465.897 1251.43,467.08 1249.73,467.947C1248.03,468.813 1245.95,469.247 1243.48,469.247L1228.93,469.247ZM1235.33,463.797L1242.88,463.797C1244.78,463.797 1246.19,463.363 1247.11,462.497C1248.02,461.63 1248.48,460.38 1248.48,458.747C1248.48,457.113 1248,455.863 1247.03,454.997C1246.07,454.13 1244.65,453.697 1242.78,453.697L1235.33,453.697L1235.33,463.797ZM1235.33,448.247L1241.63,448.247C1243.43,448.247 1244.75,447.888 1245.58,447.172C1246.41,446.455 1246.83,445.38 1246.83,443.947C1246.83,442.58 1246.42,441.53 1245.61,440.797C1244.79,440.063 1243.43,439.697 1241.53,439.697L1235.33,439.697L1235.33,448.247Z" style="fill:rgb(240,239,244);fill-rule:nonzero;"/>
                <path d="M1267.63,469.247L1267.63,455.197L1255.88,434.247L1263.13,434.247L1270.88,448.797L1278.58,434.247L1285.73,434.247L1274.03,455.197L1274.03,469.247L1267.63,469.247Z" style="fill:rgb(240,239,244);fill-rule:nonzero;"/>
                <path d="M1298.43,469.247L1311.23,434.247L1318.43,434.247L1331.23,469.247L1324.43,469.247L1321.68,461.297L1307.93,461.297L1305.13,469.247L1298.43,469.247ZM1309.73,456.147L1319.88,456.147L1314.78,441.597L1309.73,456.147Z" style="fill:rgb(240,239,244);fill-rule:nonzero;"/>
                <path d="M1335.38,469.247L1335.38,434.247L1341.78,434.247L1341.78,463.797L1356.88,463.797L1356.88,469.247L1335.38,469.247Z" style="fill:rgb(240,239,244);fill-rule:nonzero;"/>
                <path d="M1362.13,469.247L1362.13,434.247L1369.73,434.247L1379.68,456.847L1389.48,434.247L1397.08,434.247L1397.08,469.247L1390.68,469.247L1390.68,445.647L1382.13,464.797L1377.08,464.797L1368.53,445.647L1368.53,469.247L1362.13,469.247Z" style="fill:rgb(240,239,244);fill-rule:nonzero;"/>
                <path d="M1400.73,469.247L1413.53,434.247L1420.73,434.247L1433.53,469.247L1426.73,469.247L1423.98,461.297L1410.23,461.297L1407.43,469.247L1400.73,469.247ZM1412.03,456.147L1422.18,456.147L1417.08,441.597L1412.03,456.147Z" style="fill:rgb(240,239,244);fill-rule:nonzero;"/>
                <path d="M1437.68,469.247L1437.68,434.247L1449.83,434.247C1452.27,434.247 1454.37,434.638 1456.16,435.422C1457.94,436.205 1459.33,437.347 1460.33,438.847C1461.33,440.347 1461.83,442.18 1461.83,444.347C1461.83,446.847 1461.16,448.847 1459.83,450.347C1458.5,451.847 1456.68,452.88 1454.38,453.447L1464.13,469.247L1456.58,469.247L1447.98,454.497L1444.08,454.497L1444.08,469.247L1437.68,469.247ZM1444.08,449.047L1449.68,449.047C1451.18,449.047 1452.34,448.838 1453.16,448.422C1453.97,448.005 1454.54,447.447 1454.86,446.747C1455.17,446.047 1455.33,445.247 1455.33,444.347C1455.33,443.447 1455.17,442.647 1454.86,441.947C1454.54,441.247 1453.97,440.697 1453.16,440.297C1452.34,439.897 1451.18,439.697 1449.68,439.697L1444.08,439.697L1444.08,449.047Z" style="fill:rgb(240,239,244);fill-rule:nonzero;"/>
                <path d="M1479.88,469.847C1477.45,469.847 1475.24,469.43 1473.26,468.597C1471.27,467.763 1469.7,466.522 1468.53,464.872C1467.37,463.222 1466.75,461.163 1466.68,458.697L1473.43,458.697C1473.5,460.33 1474.09,461.697 1475.21,462.797C1476.32,463.897 1477.87,464.447 1479.83,464.447C1481.53,464.447 1482.88,464.047 1483.88,463.247C1484.88,462.447 1485.38,461.363 1485.38,459.997C1485.38,459.297 1485.27,458.68 1485.06,458.147C1484.84,457.613 1484.43,457.113 1483.83,456.647C1483.23,456.18 1482.39,455.722 1481.31,455.272C1480.22,454.822 1478.8,454.313 1477.03,453.747C1474.73,452.98 1472.88,452.097 1471.48,451.097C1470.08,450.097 1469.07,448.972 1468.46,447.722C1467.84,446.472 1467.53,445.113 1467.53,443.647C1467.53,441.447 1468.06,439.605 1469.11,438.122C1470.16,436.638 1471.57,435.522 1473.36,434.772C1475.14,434.022 1477.12,433.647 1479.28,433.647C1481.48,433.647 1483.47,434.03 1485.26,434.797C1487.04,435.563 1488.48,436.697 1489.58,438.197C1490.68,439.697 1491.25,441.547 1491.28,443.747L1484.43,443.747C1484.4,442.48 1483.91,441.38 1482.96,440.447C1482.01,439.513 1480.7,439.047 1479.03,439.047C1477.7,439.047 1476.57,439.397 1475.63,440.097C1474.7,440.797 1474.23,441.83 1474.23,443.197C1474.23,444.197 1474.61,445.047 1475.36,445.747C1476.11,446.447 1477.12,447.055 1478.41,447.572C1479.69,448.088 1481.12,448.63 1482.68,449.197C1483.55,449.497 1484.52,449.88 1485.61,450.347C1486.69,450.813 1487.73,451.438 1488.73,452.222C1489.73,453.005 1490.56,453.988 1491.21,455.172C1491.86,456.355 1492.18,457.813 1492.18,459.547C1492.18,461.68 1491.64,463.513 1490.56,465.047C1489.47,466.58 1488.01,467.763 1486.16,468.597C1484.31,469.43 1482.21,469.847 1479.88,469.847Z" style="fill:rgb(240,239,244);fill-rule:nonzero;"/>
                <path d="M1497.38,469.247L1497.38,434.247L1503.78,434.247L1503.78,447.997L1519.48,447.997L1519.48,434.247L1525.88,434.247L1525.88,469.247L1519.48,469.247L1519.48,453.447L1503.78,453.447L1503.78,469.247L1497.38,469.247Z" style="fill:rgb(240,239,244);fill-rule:nonzero;"/>
                <path d="M1548.98,469.847C1546.65,469.847 1544.41,469.43 1542.26,468.597C1540.11,467.763 1538.2,466.563 1536.53,464.997C1534.87,463.43 1533.55,461.53 1532.58,459.297C1531.62,457.063 1531.13,454.547 1531.13,451.747C1531.13,448.947 1531.62,446.43 1532.58,444.197C1533.55,441.963 1534.87,440.063 1536.53,438.497C1538.2,436.93 1540.11,435.73 1542.26,434.897C1544.41,434.063 1546.65,433.647 1548.98,433.647C1551.35,433.647 1553.61,434.063 1555.76,434.897C1557.91,435.73 1559.82,436.93 1561.48,438.497C1563.15,440.063 1564.47,441.963 1565.43,444.197C1566.4,446.43 1566.88,448.947 1566.88,451.747C1566.88,454.547 1566.4,457.063 1565.43,459.297C1564.47,461.53 1563.15,463.43 1561.48,464.997C1559.82,466.563 1557.91,467.763 1555.76,468.597C1553.61,469.43 1551.35,469.847 1548.98,469.847ZM1548.98,464.047C1550.85,464.047 1552.65,463.605 1554.38,462.722C1556.12,461.838 1557.53,460.48 1558.63,458.647C1559.73,456.813 1560.28,454.513 1560.28,451.747C1560.28,448.947 1559.73,446.63 1558.63,444.797C1557.53,442.963 1556.12,441.605 1554.38,440.722C1552.65,439.838 1550.85,439.397 1548.98,439.397C1547.15,439.397 1545.37,439.838 1543.63,440.722C1541.9,441.605 1540.48,442.963 1539.38,444.797C1538.28,446.63 1537.73,448.947 1537.73,451.747C1537.73,454.513 1538.28,456.813 1539.38,458.647C1540.48,460.48 1541.9,461.838 1543.63,462.722C1545.37,463.605 1547.15,464.047 1548.98,464.047Z" style="fill:rgb(240,239,244);fill-rule:nonzero;"/>
                <path d="M1585.63,469.847C1582.43,469.847 1579.82,469.205 1577.81,467.922C1575.79,466.638 1574.31,464.93 1573.36,462.797C1572.41,460.663 1571.93,458.347 1571.93,455.847L1571.93,434.247L1578.33,434.247L1578.33,455.897C1578.33,458.63 1578.99,460.663 1580.31,461.997C1581.62,463.33 1583.45,463.997 1585.78,463.997C1588.08,463.997 1589.9,463.33 1591.23,461.997C1592.57,460.663 1593.23,458.63 1593.23,455.897L1593.23,434.247L1599.63,434.247L1599.63,455.847C1599.63,458.48 1599.22,460.697 1598.38,462.497C1597.55,464.297 1596.44,465.73 1595.06,466.797C1593.67,467.863 1592.16,468.638 1590.51,469.122C1588.86,469.605 1587.23,469.847 1585.63,469.847Z" style="fill:rgb(240,239,244);fill-rule:nonzero;"/>
                <path d="M1605.78,469.247L1605.78,434.247L1617.73,434.247C1621.9,434.247 1625.31,434.98 1627.96,436.447C1630.61,437.913 1632.56,439.963 1633.81,442.597C1635.06,445.23 1635.68,448.28 1635.68,451.747C1635.68,455.48 1634.99,458.655 1633.61,461.272C1632.22,463.888 1630.2,465.872 1627.53,467.222C1624.87,468.572 1621.6,469.247 1617.73,469.247L1605.78,469.247ZM1612.18,463.747L1617.43,463.747C1620.4,463.747 1622.73,463.263 1624.43,462.297C1626.13,461.33 1627.34,459.947 1628.06,458.147C1628.77,456.347 1629.13,454.213 1629.13,451.747C1629.13,447.58 1628.17,444.53 1626.26,442.597C1624.34,440.663 1621.4,439.697 1617.43,439.697L1612.18,439.697L1612.18,463.747Z" style="fill:rgb(240,239,244);fill-rule:nonzero;"/>
            </g>
        </g>
        <g transform="matrix(1,0,0,0.515263,-1100.38,2107.32)">
            <g transform="matrix(1.80205,6.58671e-17,-0.0786601,-4.37161,2456.78,16118.7)">
                <path d="M2642.13,554.678L2599.51,554.678L2551.87,482.509C2550.35,480.744 2547.84,479.69 2545.16,479.69C2533.64,479.685 2501.98,479.685 2486.94,479.685C2484.78,479.685 2482.71,480.371 2481.18,481.593C2479.66,482.814 2478.8,484.471 2478.8,486.199L2467.94,581.315L2506.57,581.315L2517.43,497.625L2567.83,574.045C2570.76,578.496 2576.55,581.315 2582.75,581.315L2724.31,581.315L2718.89,554.678L2678.25,554.678L2668.7,478.496L2632.58,478.496L2642.13,554.678ZM2344.47,478.496L2296.54,478.496C2296.54,478.496 2371.43,569.563 2380.24,580.288C2380.77,580.927 2381.66,581.315 2382.6,581.315C2390.65,581.315 2428.45,581.315 2438.44,581.315C2439.83,581.315 2440.95,580.484 2441.06,579.384C2442.48,565.264 2451.15,478.496 2451.15,478.496L2412.4,478.496L2404.12,554.678L2344.47,478.496ZM3039.09,480.69L3001.69,480.69C3001.69,480.69 3014.47,578.26 3014.47,578.26L3051.87,578.26C3051.87,578.26 3039.09,480.69 3039.09,480.69ZM3102.41,480.69L3065.01,480.69C3065.01,480.69 3077.8,578.26 3077.8,578.26L3125.77,578.26C3127.81,578.26 3129.6,577.347 3130.4,575.895L3158.73,524.597L3206.79,576.342C3207.9,577.541 3209.65,578.26 3211.46,578.26L3259.55,578.26C3259.55,578.26 3246.77,480.69 3246.77,480.69L3209.37,480.69C3209.37,480.69 3217.77,544.774 3217.77,544.774L3171.54,495.975C3170.42,494.797 3168.69,494.093 3166.9,494.093L3142.28,494.093C3140.25,494.093 3138.47,495.002 3137.66,496.449L3110.81,544.759L3102.41,480.69ZM2794.27,584.572C2831.85,584.572 2858.63,560.163 2854.03,530.098C2849.43,500.033 2815.18,475.625 2777.6,475.625C2740.02,475.625 2713.24,500.033 2717.84,530.098C2722.44,560.163 2756.69,584.572 2794.27,584.572ZM2790.06,557.057C2770.85,557.057 2753.44,544.961 2751.17,530.098C2748.9,515.235 2762.6,503.14 2781.81,503.14C2801.02,503.14 2818.43,515.235 2820.7,530.098C2822.97,544.961 2809.26,557.057 2790.06,557.057ZM2990.02,546.337L2990.02,546.335C2988.91,537.915 2980.02,523.583 2962.02,518.568L2959.33,517.819L2988.66,478.496C2988.66,478.496 2947.67,478.496 2947.67,478.496L2921.59,515.809C2920.35,517.594 2917.99,518.668 2915.32,518.668L2906.26,518.668L2901.28,480.69C2901.28,480.69 2865.08,480.69 2865.08,480.69L2878.14,580.31L2957.96,580.31C2978.44,580.31 2992.76,567.247 2990.02,546.337ZM2955.66,544.065C2956.76,552.452 2949.16,559.251 2938.67,559.251L2911.58,559.251L2907.6,528.878L2934.69,528.878C2945.17,528.878 2954.56,535.676 2955.66,544.063L2955.66,544.065Z" style="fill:rgb(240,239,244);"/>
            </g>
        </g>
        <g transform="matrix(1,0,0,0.515263,-1100.38,2107.32)">
            <g transform="matrix(-2.38672,4.61258e-16,2.37669e-16,4.63203,24523.6,4213.84)">
                <path d="M7632.91,2026L7586,2030.1L7586,2063.91L7632.91,2071.81L7632.91,2113.81L7589.81,2105.64L7543.99,2069.25C7543.99,2069.25 7544.2,2036.56 7543.99,2022.2L7591,1984L7632.91,1984L7632.91,2026Z" style="fill:rgb(240,239,244);"/>
            </g>
        </g>
        <g transform="matrix(1,0,0,0.515263,-1100.38,2107.32)">
            <g transform="matrix(2.38672,-4.61258e-16,-2.37669e-16,-4.63203,-11911.5,23388.9)">
                <path d="M7632.91,2026L7586,2030.1L7586,2063.91L7632.91,2071.81L7632.91,2113.81L7589.81,2105.64L7543.99,2069.25C7543.99,2069.25 7544.2,2036.56 7543.99,2022.2L7591,1984L7632.91,1984L7632.91,2026Z" style="fill:rgb(240,239,244);"/>
            </g>
        </g>
    </g>
</svg>
